<svg width="18" height="19" viewBox="0 0 18 19" fill="none" xmlns="http://www.w3.org/2000/svg">
<path d="M9 9.5H8.4C8.4 9.75826 8.56526 9.98754 8.81026 10.0692L9 9.5ZM9.6 5.75C9.6 5.41863 9.33137 5.15 9 5.15C8.66863 5.15 8.4 5.41863 8.4 5.75H9.6ZM11.0603 10.8192C11.3746 10.924 11.7144 10.7541 11.8192 10.4397C11.924 10.1254 11.7541 9.78558 11.4397 9.68079L11.0603 10.8192ZM9.6 9.5V5.75H8.4V9.5H9.6ZM8.81026 10.0692L11.0603 10.8192L11.4397 9.68079L9.18974 8.93079L8.81026 10.0692ZM15.9 9.5C15.9 13.3108 12.8108 16.4 9 16.4V17.6C13.4735 17.6 17.1 13.9735 17.1 9.5H15.9ZM9 16.4C5.18924 16.4 2.1 13.3108 2.1 9.5H0.9C0.9 13.9735 4.52649 17.6 9 17.6V16.4ZM2.1 9.5C2.1 5.68924 5.18924 2.6 9 2.6V1.4C4.52649 1.4 0.9 5.02649 0.9 9.5H2.1ZM9 2.6C12.8108 2.6 15.9 5.68924 15.9 9.5H17.1C17.1 5.02649 13.4735 1.4 9 1.4V2.6Z" fill="#3649FF"/>
</svg>
