<svg width="73" height="70" viewBox="0 0 73 70" fill="none" xmlns="http://www.w3.org/2000/svg">
<rect x="3.5" y="3.71106" width="66" height="62.1134" stroke="#108CE7"/>
<rect x="0.25" y="62.7915" width="6.5" height="6.09393" fill="white" stroke="#108CE7" stroke-width="0.5"/>
<rect x="66.2344" y="62.7915" width="6.5" height="6.09393" fill="white" stroke="#108CE7" stroke-width="0.5"/>
<rect x="66.2344" y="0.634949" width="6.5" height="6.09394" fill="white" stroke="#108CE7" stroke-width="0.5"/>
<rect x="0.25" y="0.635071" width="6.5" height="6.09394" fill="white" stroke="#108CE7" stroke-width="0.5"/>
<path d="M45.49 30.9564L67 34.2967L45.49 37.637C42.952 38.0326 40.96 39.9034 40.546 42.2942L37 62.5564L33.454 42.2942C33.034 39.9034 31.048 38.027 28.51 37.637L7 34.2967L28.51 30.9564C31.048 30.5608 33.04 28.69 33.454 26.2992L37 6.03699L40.546 26.2992C40.966 28.69 42.952 30.5664 45.49 30.9564Z" fill="#3649FF"/>
</svg>
