<?xml version="1.0" encoding="UTF-8"?>
<svg id="Layer_2" xmlns="http://www.w3.org/2000/svg" viewBox="0 0 515.12 140.8">
  <defs>
    <style>
      .cls-1 {
        fill: #fff;
      }
    </style>
  </defs>
  <g id="_Слой_1" data-name="Слой_1">
    <g>
      <g>
        <g>
          <path class="cls-1" d="M16.5,39.52h44.19L22.1,116.69.64,76.4c-.83-1.56-.86-3.44-.06-5.02l15.92-31.85Z"/>
          <path class="cls-1" d="M134.19,76.06l-21.45,40.29L54.27,0h41.08c2.08,0,3.97,1.18,4.9,3.04l34.01,68c.79,1.58.77,3.45-.07,5.02Z"/>
        </g>
        <path class="cls-1" d="M38.47,137.51l26.89-53.82c.84-1.67,3.22-1.68,4.06,0l26.94,53.62c.76,1.51-.33,3.29-2.02,3.29l-53.83.2c-1.69,0-2.8-1.77-2.04-3.29Z"/>
      </g>
      <path class="cls-1" d="M264.75,56.21c0,1.75,1.16,3.18,3.48,4.27,2.32,1.1,5.15,2.06,8.48,2.89,3.33.83,6.66,1.89,9.99,3.15,3.33,1.27,6.15,3.4,8.48,6.37,2.32,2.98,3.48,6.7,3.48,11.17,0,6.75-2.52,11.94-7.56,15.57-5.04,3.64-11.33,5.45-18.86,5.45-13.49,0-22.69-5.21-27.6-15.64l14.72-8.28c1.93,5.7,6.22,8.54,12.88,8.54,6.05,0,9.07-1.88,9.07-5.65,0-1.75-1.16-3.18-3.48-4.27-2.32-1.09-5.15-2.08-8.48-2.96-3.33-.88-6.66-1.97-9.99-3.29-3.33-1.31-6.16-3.39-8.48-6.24-2.32-2.85-3.48-6.42-3.48-10.71,0-6.48,2.39-11.59,7.16-15.31,4.77-3.72,10.71-5.59,17.81-5.59,5.34,0,10.21,1.21,14.59,3.61,4.38,2.41,7.84,5.85,10.38,10.32l-14.46,7.89c-2.1-4.47-5.61-6.7-10.51-6.7-2.19,0-4.01.48-5.46,1.45-1.45.97-2.17,2.28-2.17,3.94Z"/>
      <path class="cls-1" d="M348.6,37.54h16.95v65.71h-16.95v-7.36c-4.12,6.13-10.65,9.2-19.58,9.2-7.19,0-13.12-2.41-17.81-7.23-4.69-4.82-7.03-11.48-7.03-19.98v-40.35h16.95v38.25c0,4.38,1.18,7.73,3.55,10.05,2.36,2.32,5.52,3.48,9.46,3.48,4.38,0,7.89-1.36,10.51-4.07,2.63-2.71,3.94-6.79,3.94-12.22v-35.49Z"/>
      <path class="cls-1" d="M413.27,35.7c7.18,0,13.12,2.41,17.81,7.23,4.69,4.82,7.03,11.48,7.03,19.98v40.35h-16.95v-38.25c0-4.38-1.18-7.73-3.55-10.05-2.36-2.32-5.52-3.48-9.46-3.48-4.38,0-7.89,1.36-10.51,4.07-2.63,2.72-3.94,6.79-3.94,12.22v35.49h-16.95V37.54h16.95v7.36c4.12-6.13,10.65-9.2,19.58-9.2Z"/>
      <path class="cls-1" d="M498.17,37.54h16.95v65.71h-16.95v-7.75c-5.08,6.4-12.22,9.59-21.42,9.59s-16.28-3.35-22.54-10.05c-6.27-6.7-9.4-14.92-9.4-24.64s3.13-17.94,9.4-24.64c6.26-6.7,13.78-10.05,22.54-10.05,9.2,0,16.34,3.2,21.42,9.59v-7.75ZM466.89,83.74c3.42,3.46,7.76,5.19,13.01,5.19s9.61-1.73,13.08-5.19c3.46-3.46,5.19-7.91,5.19-13.34s-1.73-9.88-5.19-13.34c-3.46-3.46-7.82-5.19-13.08-5.19s-9.59,1.73-13.01,5.19c-3.42,3.46-5.13,7.91-5.13,13.34s1.71,9.88,5.13,13.34Z"/>
      <path class="cls-1" d="M221.24,37.54h16.95v65.71h-16.95v-7.75c-5.08,6.4-12.22,9.59-21.42,9.59s-16.28-3.35-22.54-10.05c-6.27-6.7-9.4-14.92-9.4-24.64s3.13-17.94,9.4-24.64c6.26-6.7,13.78-10.05,22.54-10.05,9.2,0,16.34,3.2,21.42,9.59v-7.75ZM189.96,83.74c3.42,3.46,7.76,5.19,13.01,5.19s9.61-1.73,13.08-5.19c3.46-3.46,5.19-7.91,5.19-13.34s-1.73-9.88-5.19-13.34c-3.46-3.46-7.82-5.19-13.08-5.19s-9.59,1.73-13.01,5.19c-3.42,3.46-5.13,7.91-5.13,13.34s1.71,9.88,5.13,13.34Z"/>
    </g>
  </g>
</svg>