<svg width="160" height="46" viewBox="0 0 160 46" fill="none" xmlns="http://www.w3.org/2000/svg">
<path d="M8.60369 13.7274H20.9319L10.166 35.6509L4.17903 24.2048C3.94747 23.7616 3.9391 23.2275 4.16229 22.7786L8.60369 13.7303V13.7274Z" fill="#3649FF"/>
<path d="M41.4369 24.1081L35.4527 35.5542L19.1406 2.5H30.6012C31.1815 2.5 31.7088 2.83523 31.9682 3.36364L41.4564 22.682C41.6768 23.1308 41.6712 23.6621 41.4369 24.1081Z" fill="#3649FF"/>
<path d="M14.734 41.5653L22.2359 26.2755C22.4702 25.801 23.1342 25.7982 23.3685 26.2755L30.8843 41.5085C31.0964 41.9375 30.7923 42.4432 30.3208 42.4432L15.3032 42.5C14.8317 42.5 14.522 41.9972 14.734 41.5653Z" fill="#3649FF"/>
<path d="M82.2346 18.4649C82.2346 19.0242 82.5949 19.4812 83.3155 19.8296C84.0361 20.1811 84.9151 20.488 85.9495 20.7532C86.9838 21.0185 88.0181 21.3573 89.0524 21.76C90.0867 22.1659 90.9627 22.8466 91.6864 23.7958C92.407 24.7483 92.7673 25.9372 92.7673 27.3658C92.7673 29.5231 91.9846 31.1819 90.4191 32.342C88.8536 33.5054 86.8999 34.0838 84.561 34.0838C80.3709 34.0838 77.5134 32.4187 75.9883 29.0853L80.5604 26.439C81.1599 28.2607 82.4924 29.1684 84.561 29.1684C86.4402 29.1684 87.3782 28.5675 87.3782 27.3626C87.3782 26.8033 87.0179 26.3463 86.2973 25.9979C85.5767 25.6495 84.6977 25.3331 83.6634 25.0519C82.6291 24.7706 81.5947 24.4223 80.5604 24.0004C79.5261 23.5817 78.6471 22.9169 77.9265 22.0061C77.2059 21.0952 76.8456 19.9542 76.8456 18.5831C76.8456 16.5121 77.5879 14.8789 79.0695 13.69C80.5511 12.5011 82.3961 11.9034 84.6014 11.9034C86.2601 11.9034 87.7727 12.2902 89.1332 13.0572C90.4936 13.8274 91.5683 14.9269 92.3573 16.3555L87.8659 18.8772C87.2136 17.4485 86.1234 16.7358 84.6014 16.7358C83.9212 16.7358 83.3559 16.8892 82.9055 17.1993C82.4551 17.5093 82.2315 17.9279 82.2315 18.4585L82.2346 18.4649Z" fill="#1A202C"/>
<path d="M108.282 12.4979H113.546V33.499H108.282V31.1467C107.002 33.1059 104.974 34.0871 102.2 34.0871C99.9666 34.0871 98.1247 33.3168 96.6679 31.7764C95.2112 30.2359 94.4844 28.1073 94.4844 25.3907V12.4948H99.7492V24.7195C99.7492 26.1194 100.116 27.1901 100.852 27.9315C101.585 28.673 102.566 29.0438 103.79 29.0438C105.151 29.0438 106.241 28.6091 107.055 27.743C107.872 26.8769 108.278 25.5729 108.278 23.8374V12.4948L108.282 12.4979Z" fill="#1A202C"/>
<path d="M128.363 11.9095C130.593 11.9095 132.438 12.6798 133.895 14.2203C135.352 15.7608 136.078 17.8893 136.078 20.6059V33.5019H130.814V21.2771C130.814 19.8772 130.447 18.8066 129.711 18.0651C128.978 17.3236 127.996 16.9529 126.773 16.9529C125.412 16.9529 124.322 17.3875 123.508 18.2537C122.691 19.123 122.284 20.4237 122.284 22.1592V33.5019H117.02V12.4976H122.284V14.8499C123.564 12.8907 125.592 11.9095 128.366 11.9095H128.363Z" fill="#1A202C"/>
<path d="M154.736 12.498H160.001V33.499H154.736V31.0221C153.158 33.0676 150.94 34.0871 148.083 34.0871C145.225 34.0871 143.026 33.0164 141.082 30.8751C139.134 28.7338 138.162 26.1066 138.162 23.0001C138.162 19.8936 139.134 17.2664 141.082 15.1251C143.026 12.9838 145.362 11.9131 148.083 11.9131C150.94 11.9131 153.158 12.9358 154.736 14.9781V12.5012V12.498ZM145.02 27.2636C146.083 28.3694 147.431 28.9223 149.061 28.9223C150.692 28.9223 152.046 28.3694 153.124 27.2636C154.199 26.1578 154.736 24.7355 154.736 23.0001C154.736 21.2646 154.199 19.8424 153.124 18.7366C152.049 17.6308 150.695 17.0779 149.061 17.0779C147.428 17.0779 146.083 17.6308 145.02 18.7366C143.958 19.8424 143.427 21.2646 143.427 23.0001C143.427 24.7355 143.958 26.1578 145.02 27.2636Z" fill="#1A202C"/>
<path d="M68.7205 12.498H73.9853V33.499H68.7205V31.0221C67.1426 33.0676 64.9249 34.0871 62.0673 34.0871C59.2097 34.0871 57.0106 33.0164 55.0662 30.8751C53.1187 28.7338 52.1465 26.1066 52.1465 23.0001C52.1465 19.8936 53.1187 17.2664 55.0662 15.1251C57.0106 12.9838 59.3464 11.9131 62.0673 11.9131C64.9249 11.9131 67.1426 12.9358 68.7205 14.9781V12.5012V12.498ZM59.0047 27.2636C60.067 28.3694 61.415 28.9223 63.0457 28.9223C64.6764 28.9223 66.0306 28.3694 67.1084 27.2636C68.1831 26.1578 68.7205 24.7355 68.7205 23.0001C68.7205 21.2646 68.1831 19.8424 67.1084 18.7366C66.0337 17.6308 64.6795 17.0779 63.0457 17.0779C61.4119 17.0779 60.067 17.6308 59.0047 18.7366C57.9424 19.8424 57.4113 21.2646 57.4113 23.0001C57.4113 24.7355 57.9424 26.1578 59.0047 27.2636Z" fill="#1A202C"/>
</svg>
