<?xml version="1.0" encoding="UTF-8"?>
<svg id="Layer_2" xmlns="http://www.w3.org/2000/svg" viewBox="0 0 428.24 447.19">
  <g id="_Слой_1" data-name="Слой_1">
    <g>
      <g>
        <path d="M52.42,125.51h140.34l-122.57,245.11L2.05,242.63c-2.64-4.95-2.74-10.93-.2-15.95l50.57-101.17Z"/>
        <path d="M426.18,241.58l-68.14,127.96L172.38,0h130.47c6.61,0,12.62,3.73,15.56,9.64l108.01,215.98c2.51,5.02,2.44,10.97-.23,15.95Z"/>
      </g>
      <path d="M122.18,436.75l85.4-170.93c2.66-5.32,10.24-5.32,12.91-.01l85.55,170.28c2.41,4.79-1.06,10.44-6.42,10.46l-170.96.65c-5.38.02-8.89-5.63-6.48-10.44Z"/>
    </g>
  </g>
</svg>