<svg width="189" height="54" viewBox="0 0 189 54" fill="none" xmlns="http://www.w3.org/2000/svg">
<path d="M6.92096 15.6196H23.0487L8.96476 44.2978L1.13264 29.3251C0.829721 28.7454 0.818772 28.0467 1.11074 27.4596L6.92096 15.6233V15.6196Z" fill="white"/>
<path d="M49.873 29.1988L42.0445 44.1715L20.7051 0.933105H35.6978C36.4569 0.933105 37.1467 1.37162 37.4861 2.06284L49.8985 27.3332C50.1868 27.9204 50.1795 28.6153 49.873 29.1988Z" fill="white"/>
<path d="M14.9366 52.0355L24.7505 32.0347C25.0571 31.4141 25.9257 31.4104 26.2323 32.0347L36.0644 51.9612C36.3417 52.5223 35.9439 53.1838 35.3271 53.1838L15.6812 53.2581C15.0644 53.2581 14.6593 52.6004 14.9366 52.0355Z" fill="white"/>
<path d="M97.5211 21.8223C97.5211 22.4726 97.9444 23.0041 98.7911 23.4091C99.6378 23.8179 100.671 24.1747 101.886 24.4831C103.101 24.7916 104.317 25.1855 105.532 25.6537C106.747 26.1257 107.777 26.9173 108.627 28.021C109.474 29.1284 109.897 30.5109 109.897 32.172C109.897 34.6805 108.977 36.6092 107.138 37.9582C105.298 39.3109 103.003 39.9835 100.255 39.9835C95.3313 39.9835 91.9736 38.0474 90.1816 34.1714L95.5539 31.0943C96.2583 33.2126 97.824 34.268 100.255 34.268C102.463 34.268 103.565 33.5693 103.565 32.1683C103.565 31.518 103.141 30.9865 102.295 30.5815C101.448 30.1764 100.415 29.8085 99.1999 29.4815C97.9846 29.1544 96.7692 28.7494 95.5539 28.2588C94.3386 27.772 93.3057 26.999 92.459 25.9399C91.6123 24.8808 91.1889 23.5541 91.1889 21.9598C91.1889 19.5517 92.0612 17.6527 93.8021 16.2702C95.543 14.8878 97.7108 14.1929 100.302 14.1929C102.251 14.1929 104.028 14.6425 105.627 15.5344C107.225 16.43 108.488 17.7084 109.415 19.3696L104.138 22.3017C103.371 20.6405 102.09 19.8118 100.302 19.8118C99.5028 19.8118 98.8386 19.9902 98.3094 20.3507C97.7802 20.7111 97.5174 21.198 97.5174 21.8149L97.5211 21.8223Z" fill="white"/>
<path d="M128.124 14.8836H134.31V39.303H128.124V36.5678C126.62 38.8459 124.237 39.9868 120.978 39.9868C118.354 39.9868 116.189 39.0912 114.478 37.2999C112.766 35.5087 111.912 33.0337 111.912 29.8749V14.8799H118.098V29.0945C118.098 30.7222 118.529 31.9671 119.394 32.8293C120.255 33.6915 121.408 34.1225 122.846 34.1225C124.445 34.1225 125.726 33.6171 126.682 32.61C127.642 31.6029 128.12 30.0867 128.12 28.0688V14.8799L128.124 14.8836Z" fill="white"/>
<path d="M151.727 14.2002C154.347 14.2002 156.515 15.0958 158.227 16.887C159.939 18.6783 160.793 21.1533 160.793 24.3121V39.3071H154.606V25.0925C154.606 23.4648 154.176 22.2198 153.311 21.3577C152.45 20.4955 151.296 20.0644 149.858 20.0644C148.26 20.0644 146.979 20.5698 146.023 21.5769C145.063 22.5877 144.585 24.1002 144.585 26.1182V39.3071H138.398V14.884H144.585V17.6191C146.088 15.3411 148.471 14.2002 151.731 14.2002H151.727Z" fill="white"/>
<path d="M182.713 14.8837H188.899V39.3031H182.713V36.423C180.859 38.8014 178.253 39.9869 174.895 39.9869C171.538 39.9869 168.954 38.7419 166.669 36.252C164.381 33.7622 163.238 30.7074 163.238 27.0952C163.238 23.4831 164.381 20.4283 166.669 17.9384C168.954 15.4486 171.698 14.2036 174.895 14.2036C178.253 14.2036 180.859 15.3928 182.713 17.7675V14.8874V14.8837ZM171.297 32.0527C172.545 33.3385 174.129 33.9814 176.045 33.9814C177.961 33.9814 179.552 33.3385 180.819 32.0527C182.081 30.7669 182.713 29.1131 182.713 27.0952C182.713 25.0773 182.081 23.4236 180.819 22.1378C179.556 20.852 177.965 20.209 176.045 20.209C174.125 20.209 172.545 20.852 171.297 22.1378C170.049 23.4236 169.424 25.0773 169.424 27.0952C169.424 29.1131 170.049 30.7669 171.297 32.0527Z" fill="white"/>
<path d="M81.6424 14.8837H87.8286V39.3031H81.6424V36.423C79.7884 38.8014 77.1826 39.9869 73.8249 39.9869C70.4672 39.9869 67.8833 38.7419 65.5986 36.252C63.3103 33.7622 62.168 30.7074 62.168 27.0952C62.168 23.4831 63.3103 20.4283 65.5986 17.9384C67.8833 15.4486 70.6278 14.2036 73.8249 14.2036C77.1826 14.2036 79.7884 15.3928 81.6424 17.7675V14.8874V14.8837ZM70.2264 32.0527C71.4745 33.3385 73.0585 33.9814 74.9745 33.9814C76.8906 33.9814 78.4818 33.3385 79.7483 32.0527C81.011 30.7669 81.6424 29.1131 81.6424 27.0952C81.6424 25.0773 81.011 23.4236 79.7483 22.1378C78.4855 20.852 76.8942 20.209 74.9745 20.209C73.0548 20.209 71.4745 20.852 70.2264 22.1378C68.9782 23.4236 68.3541 25.0773 68.3541 27.0952C68.3541 29.1131 68.9782 30.7669 70.2264 32.0527Z" fill="white"/>
</svg>
