<svg width="39" height="32" viewBox="0 0 39 32" fill="none" xmlns="http://www.w3.org/2000/svg">
<path opacity="0.539615" d="M39 0V5.76149C35.8163 6.26688 33.5877 7.32821 32.3143 8.94547C31.0408 10.5627 30.4041 13.4435 30.4041 17.5877L38.5224 17.5877V31.9914L22.9224 31.9914V19.862C22.9224 13.5951 24.1429 8.74331 26.5837 5.30663C29.0245 1.76888 33.1633 0 39 0ZM16.0775 0V5.76149C12.8939 6.26688 10.6653 7.32821 9.39184 8.94547C8.11837 10.5627 7.48163 13.4435 7.48163 17.5877H15.6V31.9914H0L0 19.862C0 13.5951 1.22041 8.74331 3.66122 5.30663C6.10204 1.76888 10.2408 0 16.0775 0Z" fill="#3649FF"/>
<path opacity="0.539615" d="M39 0V5.76149C35.8163 6.26688 33.5877 7.32821 32.3143 8.94547C31.0408 10.5627 30.4041 13.4435 30.4041 17.5877L38.5224 17.5877V31.9914L22.9224 31.9914V19.862C22.9224 13.5951 24.1429 8.74331 26.5837 5.30663C29.0245 1.76888 33.1633 0 39 0ZM16.0775 0V5.76149C12.8939 6.26688 10.6653 7.32821 9.39184 8.94547C8.11837 10.5627 7.48163 13.4435 7.48163 17.5877H15.6V31.9914H0L0 19.862C0 13.5951 1.22041 8.74331 3.66122 5.30663C6.10204 1.76888 10.2408 0 16.0775 0Z" fill="#3649FF"/>
<path opacity="0.539615" d="M39 0V5.76149C35.8163 6.26688 33.5877 7.32821 32.3143 8.94547C31.0408 10.5627 30.4041 13.4435 30.4041 17.5877L38.5224 17.5877V31.9914L22.9224 31.9914V19.862C22.9224 13.5951 24.1429 8.74331 26.5837 5.30663C29.0245 1.76888 33.1633 0 39 0ZM16.0775 0V5.76149C12.8939 6.26688 10.6653 7.32821 9.39184 8.94547C8.11837 10.5627 7.48163 13.4435 7.48163 17.5877H15.6V31.9914H0L0 19.862C0 13.5951 1.22041 8.74331 3.66122 5.30663C6.10204 1.76888 10.2408 0 16.0775 0Z" fill="#3649FF"/>
<path opacity="0.539615" d="M39 0V5.76149C35.8163 6.26688 33.5877 7.32821 32.3143 8.94547C31.0408 10.5627 30.4041 13.4435 30.4041 17.5877L38.5224 17.5877V31.9914L22.9224 31.9914V19.862C22.9224 13.5951 24.1429 8.74331 26.5837 5.30663C29.0245 1.76888 33.1633 0 39 0ZM16.0775 0V5.76149C12.8939 6.26688 10.6653 7.32821 9.39184 8.94547C8.11837 10.5627 7.48163 13.4435 7.48163 17.5877H15.6V31.9914H0L0 19.862C0 13.5951 1.22041 8.74331 3.66122 5.30663C6.10204 1.76888 10.2408 0 16.0775 0Z" fill="#3649FF"/>
</svg>
